<?xml version="1.0" encoding="UTF-8" standalone="no"?>
<!-- Created with Inkscape (http://www.inkscape.org/) -->

<svg
   xmlns:dc="http://purl.org/dc/elements/1.1/"
   xmlns:cc="http://creativecommons.org/ns#"
   xmlns:rdf="http://www.w3.org/1999/02/22-rdf-syntax-ns#"
   xmlns:svg="http://www.w3.org/2000/svg"
   xmlns="http://www.w3.org/2000/svg"
   xmlns:xlink="http://www.w3.org/1999/xlink"
   xmlns:sodipodi="http://sodipodi.sourceforge.net/DTD/sodipodi-0.dtd"
   xmlns:inkscape="http://www.inkscape.org/namespaces/inkscape"
   width="960"
   height="540"
   viewBox="0 0 254 142.875"
   version="1.1"
   id="svg5646"
   inkscape:version="0.92.0 r15299"
   sodipodi:docname="start_logo.svg">
  <defs
     id="defs5640">
    <linearGradient
       id="linearGradient4331"
       y2="435.63"
       gradientUnits="userSpaceOnUse"
       x2="890.97998"
       gradientTransform="matrix(0.08691,0.016343,-0.016343,0.08691,698.37104,102.6629)"
       y1="621.65002"
       x1="929.46002"
       inkscape:collect="always">
      <stop
         id="stop7488"
         style="stop-color:#1F1F1F"
         offset="0" />
      <stop
         id="stop7490"
         style="stop-color:#090909"
         offset=".5959" />
      <stop
         id="stop7492"
         style="stop-color:#000000"
         offset="1" />
    </linearGradient>
    <linearGradient
       gradientTransform="translate(-117.12593,-224.88307)"
       id="linearGradient4333"
       y2="761.72998"
       gradientUnits="userSpaceOnUse"
       x2="844.16998"
       y1="774.70001"
       x1="834.02002"
       inkscape:collect="always">
      <stop
         id="stop7865"
         style="stop-color:#ececec"
         offset="0" />
      <stop
         id="stop7867"
         style="stop-color:#ffffff"
         offset="1" />
    </linearGradient>
    <linearGradient
       gradientTransform="translate(-102.35256,-217.83372)"
       id="linearGradient4335"
       y2="767.78003"
       gradientUnits="userSpaceOnUse"
       x2="836.94"
       y1="782.87"
       x1="829.04999"
       inkscape:collect="always">
      <stop
         id="stop7879"
         style="stop-color:#b3b3b3"
         offset="0" />
      <stop
         id="stop7881"
         style="stop-color:#ffffff"
         offset="1" />
    </linearGradient>
    <linearGradient
       gradientTransform="translate(-117.12593,-224.88307)"
       id="linearGradient4337"
       y2="782.60999"
       gradientUnits="userSpaceOnUse"
       x2="880.90997"
       y1="792.90002"
       x1="868.13"
       inkscape:collect="always">
      <stop
         id="stop7885"
         style="stop-color:#b3b3b3"
         offset="0" />
      <stop
         id="stop7887"
         style="stop-color:#ffffff"
         offset="1" />
    </linearGradient>
    <linearGradient
       gradientTransform="translate(-117.12593,-224.88307)"
       id="linearGradient4339"
       y2="797.75"
       gradientUnits="userSpaceOnUse"
       x2="918.77002"
       y1="809.51001"
       x1="906.10999"
       inkscape:collect="always">
      <stop
         id="stop7891"
         style="stop-color:#b3b3b3"
         offset="0" />
      <stop
         id="stop7893"
         style="stop-color:#ffffff"
         offset="1" />
    </linearGradient>
    <linearGradient
       id="linearGradient4341"
       y2="750.48999"
       gradientUnits="userSpaceOnUse"
       x2="879.87"
       y1="700.19"
       x1="875.87"
       inkscape:collect="always">
      <stop
         id="stop7897"
         style="stop-color:#cccccc"
         offset="0" />
      <stop
         id="stop7899"
         style="stop-color:#ffffff"
         offset="1" />
    </linearGradient>
    <linearGradient
       id="linearGradient4349"
       y2="446.56"
       gradientUnits="userSpaceOnUse"
       x2="849.78003"
       gradientTransform="matrix(0.9077,0.4197,-0.4197,0.9077,83.314078,-281.97307)"
       y1="490.42999"
       x1="888.39001"
       inkscape:collect="always">
      <stop
         id="stop7557"
         style="stop-color:#292929"
         offset="0" />
      <stop
         id="stop7559"
         style="stop-color:#212121"
         offset=".098" />
      <stop
         id="stop7561"
         style="stop-color:#090909"
         offset=".466" />
      <stop
         id="stop7563"
         style="stop-color:#000000"
         offset=".6923" />
    </linearGradient>
    <filter
       style="color-interpolation-filters:sRGB"
       id="filter5951"
       height="2.7636001"
       width="1.0802"
       y="-0.88178998"
       x="-0.040081002"
       inkscape:collect="always">
      <feGaussianBlur
         id="feGaussianBlur5953"
         stdDeviation="9.6496791"
         inkscape:collect="always" />
    </filter>
    <linearGradient
       gradientTransform="translate(-142.1962,-209.93231)"
       y2="750.48999"
       x2="879.87"
       y1="700.19"
       x1="875.87"
       gradientUnits="userSpaceOnUse"
       id="linearGradient6311"
       xlink:href="#linearGradient4341"
       inkscape:collect="always" />
    <linearGradient
       inkscape:collect="always"
       xlink:href="#linearGradient4341"
       id="linearGradient6521"
       gradientUnits="userSpaceOnUse"
       gradientTransform="translate(-142.1962,-209.93231)"
       x1="875.87"
       y1="700.19"
       x2="879.87"
       y2="750.48999" />
    <linearGradient
       inkscape:collect="always"
       xlink:href="#linearGradient4341"
       id="linearGradient6523"
       gradientUnits="userSpaceOnUse"
       gradientTransform="translate(-142.1962,-209.93231)"
       x1="875.87"
       y1="700.19"
       x2="879.87"
       y2="750.48999" />
    <linearGradient
       inkscape:collect="always"
       xlink:href="#linearGradient4341"
       id="linearGradient6525"
       gradientUnits="userSpaceOnUse"
       gradientTransform="translate(-142.1962,-209.93231)"
       x1="875.87"
       y1="700.19"
       x2="879.87"
       y2="750.48999" />
    <linearGradient
       inkscape:collect="always"
       xlink:href="#linearGradient4335"
       id="linearGradient6535"
       x1="10.073065"
       y1="164.14136"
       x2="218.72729"
       y2="273.78131"
       gradientUnits="userSpaceOnUse"
       gradientTransform="matrix(0.87265926,0,0,0.96700614,9.7466811,7.6311697)" />
    <filter
       inkscape:collect="always"
       style="color-interpolation-filters:sRGB"
       id="filter6545"
       x="-0.0038886597"
       width="1.0077773"
       y="-0.0062692522"
       height="1.0125385">
      <feGaussianBlur
         inkscape:collect="always"
         stdDeviation="0.35643155"
         id="feGaussianBlur6547" />
    </filter>
    <linearGradient
       inkscape:collect="always"
       xlink:href="#linearGradient4335"
       id="linearGradient6617"
       gradientUnits="userSpaceOnUse"
       gradientTransform="translate(-117.12593,-224.88307)"
       x1="829.04999"
       y1="782.87"
       x2="836.94"
       y2="767.78003" />
  </defs>
  <sodipodi:namedview
     id="base"
     pagecolor="#ffffff"
     bordercolor="#666666"
     borderopacity="1.0"
     inkscape:pageopacity="0.0"
     inkscape:pageshadow="2"
     inkscape:zoom="0.49497475"
     inkscape:cx="114.50305"
     inkscape:cy="654.84011"
     inkscape:document-units="mm"
     inkscape:current-layer="layer1"
     showgrid="false"
     inkscape:window-width="1920"
     inkscape:window-height="1017"
     inkscape:window-x="-8"
     inkscape:window-y="-8"
     inkscape:window-maximized="1" />
  <metadata
     id="metadata5643">
    <rdf:RDF>
      <cc:Work
         rdf:about="">
        <dc:format>image/svg+xml</dc:format>
        <dc:type
           rdf:resource="http://purl.org/dc/dcmitype/StillImage" />
        <dc:title></dc:title>
      </cc:Work>
    </rdf:RDF>
  </metadata>
  <g
     inkscape:label="Layer 1"
     inkscape:groupmode="layer"
     id="layer1"
     transform="translate(0,-154.125)">
    <rect
       style="fill:url(#linearGradient6535);fill-opacity:1;fill-rule:evenodd;stroke:#000000;stroke-width:1.07019484;stroke-linecap:butt;stroke-linejoin:miter;stroke-miterlimit:4;stroke-dasharray:none;stroke-opacity:1;filter:url(#filter6545)"
       id="rect6527"
       width="219.98215"
       height="136.4494"
       x="10.583333"
       y="157.52678"
       rx="0.3834593"
       ry="0.42491665"
       transform="matrix(1.1459226,0,0,1.0341196,-11.168943,-7.8915425)"
       inkscape:export-xdpi="39.990002"
       inkscape:export-ydpi="39.990002" />
    <g
       id="g6615"
       transform="translate(3.5675662,0.64659575)"
       inkscape:export-xdpi="39.990002"
       inkscape:export-ydpi="39.990002">
      <ellipse
         inkscape:export-ydpi="32.119999"
         inkscape:export-xdpi="32.119999"
         ry="13.131983"
         rx="288.90363"
         cy="875.58551"
         cx="-115.15739"
         transform="matrix(0.08108454,-4.1380833e-7,5.2363687e-7,0.10241523,69.43435,152.52577)"
         style="opacity:0.51842998;fill:#000000;filter:url(#filter5951)"
         id="path5909" />
      <g
         inkscape:export-ydpi="32.119999"
         inkscape:export-xdpi="32.119999"
         transform="matrix(2.5043387,-0.04681845,0.04681845,2.5043387,-1913.9936,-197.22761)"
         id="g4278">
        <path
           d="m 793,178.02 -12.449,-2.3411 0.29039,-1.5442 -2.0749,-0.3902 -2.2777,12.111 c -0.10022,0.5331 0.25078,1.0464 0.78368,1.1465 l 13.559,2.5498 c 0.5331,0.1002 1.0463,-0.2506 1.1466,-0.7836 l 1.8057,-9.6021 c 0.10042,-0.533 -0.25029,-1.046 -0.78346,-1.1463 z"
           inkscape:connector-curvature="0"
           style="fill:url(#linearGradient4331)"
           id="path7494" />
        <rect
           x="798"
           y="31.235001"
           width="15.014"
           height="0.12027"
           transform="rotate(10.65)"
           style="fill:#ffffff"
           id="rect7498" />
        <rect
           x="798"
           y="38.182999"
           width="15.014"
           height="0.12027"
           transform="rotate(10.65)"
           style="fill:#ffffff"
           id="rect7500" />
        <g
           transform="matrix(0.085741,-0.02164,0.02164,0.085741,697.33,128.64)"
           id="g7516">
          <g
             id="g7518">
            <g
               id="g7520">
              <polygon
                 points="753.36,746.44 919.67,823.34 931.82,797.05 783.66,728.54 758.85,734.57 "
                 id="polygon7522" />
              <g
                 id="g7524">
                <polygon
                   points="754.26,745.82 759.1,735.34 783.38,729.44 930.92,797.67 919.55,822.25 "
                   id="polygon7526" />
                <polygon
                   points="814,743.6 796.08,765.16 777.44,756.54 795.36,734.98 "
                   style="fill:url(#linearGradient4333)"
                   id="polygon7528" />
                <polygon
                   points="852.31,761.31 834.38,782.87 815.74,774.25 833.66,752.69 "
                   style="fill:url(#linearGradient6617)"
                   id="polygon7530" />
                <polygon
                   points="890.61,779.02 872.69,800.58 854.04,791.96 871.96,770.4 "
                   style="fill:url(#linearGradient4337)"
                   id="polygon7532" />
                <polygon
                   points="928.91,796.73 910.99,818.29 892.34,809.67 910.26,788.11 "
                   style="fill:url(#linearGradient4339)"
                   id="polygon7534" />
              </g>
            </g>
            <g
               transform="matrix(0.99337,0.11493,-0.11493,0.99337,86.22,-85.366)"
               id="g7536">
              <polygon
                 points="774.51,694.67 953.55,733.6 947.4,761.89 787.89,727.22 771.73,707.45 "
                 id="polygon7538" />
              <g
                 id="g7540">
                <polygon
                   points="774.85,695.7 772.4,707 788.21,726.33 947.05,760.86 952.81,734.39 "
                   id="polygon7542" />
                <polygon
                   points="821.18,733.5 819.88,705.5 799.81,701.13 801.1,729.14 "
                   style="fill:url(#linearGradient6521)"
                   id="polygon7544" />
                <polygon
                   points="862.41,742.46 861.12,714.46 841.04,710.1 842.34,738.1 "
                   style="fill:url(#linearGradient6523)"
                   id="polygon7546" />
                <polygon
                   points="903.65,751.43 902.35,723.42 882.28,719.06 883.57,747.06 "
                   style="fill:url(#linearGradient6525)"
                   id="polygon7548" />
                <polygon
                   points="944.88,760.39 943.58,732.39 923.51,728.02 924.81,756.03 "
                   style="fill:url(#linearGradient6311)"
                   id="polygon7550" />
              </g>
            </g>
          </g>
          <g
             id="g7552">
            <g
               id="g7554">
              <path
                 d="m 825.2,723.61 c 1.258,-2.721 -0.087,-6.044 -2.991,-7.388 l -37.077,-17.144 c -2.902,-1.342 -6.308,-0.215 -7.565,2.506 l -17.971,38.866 c -1.258,2.72 0.09,6.044 2.991,7.386 l 37.077,17.144 c 2.905,1.344 6.307,0.216 7.565,-2.505 z"
                 inkscape:connector-curvature="0"
                 style="fill:url(#linearGradient4349)"
                 id="path7565" />
            </g>
            <g
               transform="translate(0.90416,2.7125)"
               id="g7567">
              <circle
                 r="2.428"
                 cy="708.15997"
                 cx="784.65002"
                 style="fill:#1a1a1a"
                 id="circle7569" />
              <polygon
                 points="783.59,708.02 784.24,707.18 785.3,707.32 785.71,708.3 785.06,709.15 784,709.01 "
                 id="polygon7571" />
              <path
                 d="m 784.64,710.32 c -1.214,-0.086 -1.785,-1.12 -1.607,-0.949 0.513,0.489 1.412,0.809 1.934,0.731 0.679,-0.106 0.957,-1.792 1.341,-1.662 0.987,0.34 -0.351,1.97 -1.668,1.88 z"
                 inkscape:connector-curvature="0"
                 style="fill:#cccccc"
                 id="path7573" />
              <path
                 d="m 785.28,706.05 c 0.144,0.019 0.43,0.64 0.081,0.804 -0.349,0.164 -1.704,-0.343 -1.935,-0.187 -0.231,0.156 0.25,-0.83 1.854,-0.617 z"
                 inkscape:connector-curvature="0"
                 style="fill:#ffffff"
                 id="path7575" />
            </g>
            <g
               transform="translate(4,2)"
               id="g7577">
              <circle
                 r="2.428"
                 cy="742.53998"
                 cx="768.75"
                 style="fill:#1a1a1a"
                 id="circle7579" />
              <polygon
                 points="767.77,742.12 768.63,741.48 769.61,741.91 769.73,742.97 768.88,743.6 767.9,743.18 "
                 id="polygon7581" />
              <path
                 d="m 768.16,744.61 c -1.146,-0.413 -1.411,-1.564 -1.287,-1.353 0.359,0.612 1.137,1.164 1.66,1.232 0.682,0.084 1.411,-1.463 1.745,-1.232 0.856,0.598 -0.877,1.801 -2.118,1.353 z"
                 inkscape:connector-curvature="0"
                 style="fill:#cccccc"
                 id="path7583" />
              <path
                 d="m 769.94,740.69 c 0.133,0.059 0.237,0.732 -0.145,0.795 -0.377,0.063 -1.544,-0.796 -1.81,-0.709 -0.262,0.088 0.468,-0.729 1.955,-0.086 z"
                 inkscape:connector-curvature="0"
                 style="fill:#ffffff"
                 id="path7585" />
            </g>
            <g
               id="g7587">
              <circle
                 r="2.428"
                 cy="757.03003"
                 cx="800.09003"
                 style="fill:#1a1a1a"
                 id="circle7589" />
              <polygon
                 points="799.11,756.61 799.96,755.97 800.94,756.4 801.07,757.46 800.21,758.09 799.23,757.67 "
                 id="polygon7591" />
              <path
                 d="m 799.49,759.1 c -1.144,-0.414 -1.411,-1.565 -1.286,-1.354 0.359,0.612 1.138,1.164 1.659,1.231 0.683,0.086 1.413,-1.461 1.747,-1.23 0.856,0.597 -0.877,1.8 -2.12,1.353 z"
                 inkscape:connector-curvature="0"
                 style="fill:#cccccc"
                 id="path7593" />
              <path
                 d="m 801.27,755.18 c 0.134,0.059 0.238,0.731 -0.145,0.795 -0.379,0.062 -1.545,-0.796 -1.81,-0.71 -0.264,0.088 0.468,-0.729 1.955,-0.085 z"
                 inkscape:connector-curvature="0"
                 style="fill:#ffffff"
                 id="path7595" />
            </g>
          </g>
        </g>
        <rect
           x="798"
           y="34.478001"
           width="15.014"
           height="0.12027"
           transform="rotate(10.65)"
           style="fill:#ffffff"
           id="rect3986" />
        <g
           transform="rotate(10.612)"
           style="fill:#ffffff"
           id="text4112">
          <path
             d="m 798.07,31.229 v -0.49647 h 0.16086 c 0.061,0 0.1007,0.0025 0.11921,0.0075 0.0285,0.0075 0.0523,0.02371 0.0715,0.04877 0.0192,0.02483 0.0288,0.05701 0.0288,0.09652 0,0.03048 -0.006,0.0561 -0.0166,0.07687 -0.0111,0.02077 -0.0252,0.03714 -0.0423,0.0491 -0.0169,0.01174 -0.0342,0.01953 -0.0518,0.02337 -0.0239,0.0047 -0.0586,0.0071 -0.10396,0.0071 h -0.0654 v 0.18728 h -0.10025 m 0.10025,-0.41248 v 0.14088 h 0.0549 c 0.0395,0 0.0659,-0.0026 0.0792,-0.0078 0.0133,-0.0052 0.0237,-0.01332 0.0312,-0.02438 0.008,-0.01106 0.0115,-0.02393 0.0115,-0.03861 0,-0.01806 -0.005,-0.03296 -0.0159,-0.0447 -0.0106,-0.01174 -0.024,-0.01908 -0.0403,-0.02201 -0.012,-0.0023 -0.036,-0.0034 -0.0721,-0.0034 h -0.0484"
             id="path4425"
             inkscape:connector-curvature="0" />
          <path
             d="m 798.53,31.229 v -0.49647 h 0.21098 c 0.0531,0 0.0915,0.0045 0.11549,0.01355 0.0242,0.0088 0.0435,0.02461 0.0579,0.04741 0.0145,0.0228 0.0217,0.04888 0.0217,0.07823 0,0.03725 -0.011,0.06807 -0.0329,0.09245 -0.0219,0.02416 -0.0546,0.0394 -0.0982,0.04572 0.0217,0.01264 0.0395,0.02653 0.0535,0.04165 0.0142,0.01513 0.0333,0.04199 0.0572,0.0806 l 0.0606,0.09686 h -0.11988 l -0.0725,-0.10803 c -0.0257,-0.03861 -0.0433,-0.06288 -0.0528,-0.07281 -0.009,-0.01016 -0.0195,-0.01705 -0.0301,-0.02066 -0.0106,-0.0038 -0.0274,-0.0058 -0.0505,-0.0058 h -0.0203 v 0.20726 h -0.10024 m 0.10024,-0.2865 h 0.0742 c 0.0481,1e-6 0.0781,-0.002 0.0901,-0.0061 0.012,-0.0041 0.0213,-0.01106 0.0281,-0.021 0.007,-0.0099 0.0102,-0.02235 0.0102,-0.03725 0,-0.01671 -0.005,-0.03014 -0.0136,-0.0403 -0.009,-0.01038 -0.0213,-0.01693 -0.0376,-0.01964 -0.008,-0.0011 -0.0325,-0.0017 -0.0731,-0.0017 h -0.0782 v 0.12598"
             id="path4427"
             inkscape:connector-curvature="0" />
          <path
             d="m 799.01,30.984 c 0,-0.05057 0.008,-0.09302 0.0227,-0.12733 0.0113,-0.02529 0.0267,-0.04798 0.0461,-0.06807 0.0196,-0.02009 0.0411,-0.03499 0.0643,-0.0447 0.0309,-0.01309 0.0666,-0.01964 0.10701,-0.01964 0.0732,10e-7 0.13163,0.02269 0.17543,0.06807 0.044,0.04538 0.066,0.10848 0.066,0.18931 0,0.08015 -0.0218,0.14291 -0.0654,0.18829 -0.0436,0.04515 -0.10182,0.06773 -0.17474,0.06773 -0.0738,0 -0.13253,-0.02246 -0.1761,-0.06739 -0.0436,-0.04515 -0.0654,-0.10724 -0.0654,-0.18626 m 0.10329,-0.0034 c 0,0.05622 0.013,0.09889 0.0389,0.12801 0.026,0.0289 0.0589,0.04335 0.0989,0.04335 0.04,1e-6 0.0727,-0.01434 0.0982,-0.04301 0.0257,-0.0289 0.0386,-0.07213 0.0386,-0.1297 0,-0.05689 -0.0125,-0.09934 -0.0376,-0.12733 -0.0248,-0.028 -0.0579,-0.04199 -0.0992,-0.04199 -0.0413,10e-7 -0.0746,0.01422 -0.0999,0.04267 -0.0253,0.02822 -0.0379,0.07089 -0.0379,0.12801"
             id="path4429"
             inkscape:connector-curvature="0" />
          <path
             d="m 799.57,30.733 h 0.18321 c 0.0413,0 0.0728,0.0032 0.0945,0.0095 0.0291,0.0086 0.0541,0.02382 0.0748,0.04572 0.0208,0.0219 0.0366,0.04877 0.0474,0.0806 0.0108,0.03161 0.0163,0.07067 0.0163,0.11718 0,0.04086 -0.005,0.07608 -0.0152,0.10566 -0.0124,0.03612 -0.0301,0.06536 -0.0532,0.08771 -0.0174,0.01693 -0.0409,0.03014 -0.0704,0.03962 -0.0221,0.007 -0.0517,0.0105 -0.0887,0.0105 h -0.18863 v -0.49647 m 0.10024,0.08399 v 0.32884 h 0.0748 c 0.028,0 0.0482,-0.0016 0.0606,-0.0047 0.0163,-0.0041 0.0297,-0.01095 0.0403,-0.02066 0.0108,-0.0097 0.0196,-0.02563 0.0264,-0.04775 0.007,-0.02235 0.0102,-0.05272 0.0102,-0.0911 0,-0.03838 -0.003,-0.06784 -0.0102,-0.08839 -0.007,-0.02054 -0.0163,-0.03657 -0.0284,-0.04809 -0.0122,-0.01151 -0.0277,-0.0193 -0.0464,-0.02337 -0.014,-0.0032 -0.0414,-0.0047 -0.0823,-0.0047 h -0.045"
             id="path4431"
             inkscape:connector-curvature="0" />
          <path
             d="m 800.07,30.733 h 0.10024 v 0.26889 c 0,0.04267 10e-4,0.07033 0.004,0.08297 0.004,0.02032 0.0145,0.03669 0.0305,0.04911 0.0163,0.01219 0.0384,0.01829 0.0664,0.01829 0.0285,1e-6 0.0499,-0.0058 0.0643,-0.01727 0.0145,-0.01174 0.0231,-0.02608 0.0261,-0.04301 0.003,-0.01693 0.004,-0.04504 0.004,-0.08432 v -0.27465 h 0.10025 v 0.26076 c -10e-6,0.0596 -0.003,0.10171 -0.008,0.12632 -0.005,0.02461 -0.0155,0.04538 -0.0301,0.06231 -0.0145,0.01693 -0.0339,0.03048 -0.0583,0.04064 -0.0244,0.0099 -0.0562,0.0149 -0.0955,0.0149 -0.0474,0 -0.0834,-0.0054 -0.10803,-0.01625 -0.0244,-0.01106 -0.0437,-0.02529 -0.0579,-0.04267 -0.0142,-0.01761 -0.0236,-0.03601 -0.0281,-0.0552 -0.007,-0.02845 -0.01,-0.07044 -0.01,-0.12598 v -0.26483"
             id="path4433"
             inkscape:connector-curvature="0" />
          <path
             d="m 800.89,31.047 0.0972,0.03082 c -0.0149,0.05419 -0.0397,0.09448 -0.0745,0.1209 -0.0345,0.02619 -0.0784,0.03928 -0.13173,0.03928 -0.0659,0 -0.12011,-0.02246 -0.16256,-0.06739 -0.0424,-0.04515 -0.0637,-0.10679 -0.0637,-0.18491 0,-0.08263 0.0213,-0.14675 0.064,-0.19236 0.0427,-0.04583 0.0988,-0.06875 0.16831,-0.06875 0.0607,1e-6 0.11006,0.01795 0.14799,0.05385 0.0226,0.02122 0.0395,0.0517 0.0508,0.09144 l -0.0992,0.02371 c -0.006,-0.02574 -0.0182,-0.04606 -0.0369,-0.06096 -0.0185,-0.0149 -0.0411,-0.02235 -0.0677,-0.02235 -0.0368,1e-6 -0.0667,0.01321 -0.0897,0.03962 -0.0228,0.02642 -0.0342,0.0692 -0.0342,0.12835 0,0.06276 0.0113,0.10747 0.0339,0.13411 0.0226,0.02664 0.0519,0.03996 0.0881,0.03996 0.0266,1e-6 0.0496,-0.0085 0.0688,-0.0254 0.0192,-0.01693 0.033,-0.04357 0.0413,-0.07992"
             id="path4435"
             inkscape:connector-curvature="0" />
          <path
             d="m 801.19,31.229 v -0.41248 h -0.14731 v -0.08399 h 0.39453 v 0.08399 h -0.14698 V 31.229 H 801.19"
             id="path4437"
             inkscape:connector-curvature="0" />
          <path
             d="m 801.5,31.229 v -0.49647 h 0.10024 V 31.229 H 801.5"
             id="path4439"
             inkscape:connector-curvature="0" />
          <path
             d="m 801.67,30.984 c 0,-0.05057 0.008,-0.09302 0.0227,-0.12733 0.0113,-0.02529 0.0266,-0.04798 0.0461,-0.06807 0.0196,-0.02009 0.0411,-0.03499 0.0643,-0.0447 0.0309,-0.01309 0.0666,-0.01964 0.10701,-0.01964 0.0732,10e-7 0.13162,0.02269 0.17542,0.06807 0.044,0.04538 0.066,0.10848 0.066,0.18931 0,0.08015 -0.0218,0.14291 -0.0654,0.18829 -0.0436,0.04515 -0.10182,0.06773 -0.17474,0.06773 -0.0738,0 -0.13253,-0.02246 -0.17611,-0.06739 -0.0436,-0.04515 -0.0654,-0.10724 -0.0654,-0.18626 m 0.10329,-0.0034 c 0,0.05622 0.013,0.09889 0.0389,0.12801 0.026,0.0289 0.0589,0.04335 0.0989,0.04335 0.04,1e-6 0.0727,-0.01434 0.0982,-0.04301 0.0257,-0.0289 0.0386,-0.07213 0.0386,-0.1297 0,-0.05689 -0.0125,-0.09934 -0.0376,-0.12733 -0.0248,-0.028 -0.0579,-0.04199 -0.0992,-0.04199 -0.0413,10e-7 -0.0746,0.01422 -0.0999,0.04267 -0.0253,0.02822 -0.0379,0.07089 -0.0379,0.12801"
             id="path4441"
             inkscape:connector-curvature="0" />
          <path
             d="m 802.23,31.229 v -0.49647 h 0.0975 l 0.20319,0.33154 v -0.33154 h 0.0931 V 31.229 h -0.10059 l -0.20014,-0.32376 V 31.229 h -0.0931"
             id="path4443"
             inkscape:connector-curvature="0" />
        </g>
        <g
           transform="rotate(10.612)"
           style="fill:#ffffff"
           id="text4116">
          <path
             d="m 798.04,34.305 0.0975,-0.0095 c 0.006,0.03274 0.0177,0.05678 0.0356,0.07213 0.0181,0.01535 0.0423,0.02303 0.0728,0.02303 0.0323,0 0.0566,-0.0068 0.0728,-0.02032 0.0165,-0.01377 0.0247,-0.0298 0.0247,-0.04809 0,-0.01174 -0.004,-0.02167 -0.0105,-0.0298 -0.007,-0.0084 -0.0187,-0.01558 -0.0359,-0.02167 -0.0117,-0.0041 -0.0385,-0.01129 -0.0803,-0.02167 -0.0537,-0.01332 -0.0914,-0.02969 -0.11311,-0.0491 -0.0305,-0.02732 -0.0457,-0.06062 -0.0457,-0.0999 0,-0.02529 0.007,-0.04888 0.0213,-0.07078 0.0145,-0.02213 0.0351,-0.03895 0.062,-0.05046 0.0271,-0.01151 0.0597,-0.01727 0.0979,-0.01727 0.0623,0 0.10916,0.01366 0.14055,0.04098 0.0316,0.02732 0.0482,0.06378 0.0498,0.10939 l -0.10024,0.0044 c -0.004,-0.02551 -0.0136,-0.0438 -0.0278,-0.05486 -0.014,-0.01129 -0.0351,-0.01693 -0.0633,-0.01693 -0.0291,10e-7 -0.0519,0.006 -0.0684,0.01795 -0.0106,0.0077 -0.0159,0.01795 -0.0159,0.03082 0,0.01174 0.005,0.02179 0.0149,0.03014 0.0127,0.01061 0.0434,0.02167 0.0921,0.03319 0.0488,0.01152 0.0848,0.02348 0.10803,0.0359 0.0235,0.01219 0.0418,0.02901 0.0549,0.05046 0.0133,0.02122 0.02,0.04752 0.02,0.07891 0,0.02845 -0.008,0.05509 -0.0237,0.07992 -0.0158,0.02483 -0.0382,0.04335 -0.0671,0.05554 -0.0289,0.01196 -0.0649,0.01795 -0.10803,0.01795 -0.0628,0 -0.11097,-0.01445 -0.14461,-0.04335 -0.0336,-0.02912 -0.0537,-0.07146 -0.0603,-0.127"
             id="path4446"
             inkscape:connector-curvature="0" />
          <path
             d="m 798.85,34.284 0.0972,0.03082 c -0.0149,0.05419 -0.0397,0.09448 -0.0745,0.1209 -0.0345,0.02619 -0.0784,0.03928 -0.13173,0.03928 -0.0659,0 -0.12011,-0.02246 -0.16256,-0.06739 -0.0424,-0.04515 -0.0637,-0.10679 -0.0637,-0.18491 0,-0.08263 0.0213,-0.14675 0.064,-0.19236 0.0427,-0.04583 0.0988,-0.06875 0.16831,-0.06875 0.0607,0 0.11006,0.01795 0.14799,0.05385 0.0226,0.02122 0.0395,0.0517 0.0508,0.09144 l -0.0992,0.02371 c -0.006,-0.02574 -0.0182,-0.04606 -0.0369,-0.06096 -0.0185,-0.0149 -0.0411,-0.02235 -0.0677,-0.02235 -0.0368,0 -0.0667,0.01321 -0.0897,0.03962 -0.0228,0.02642 -0.0342,0.0692 -0.0342,0.12835 0,0.06276 0.0113,0.10747 0.0339,0.13411 0.0226,0.02664 0.0519,0.03996 0.0881,0.03996 0.0266,0 0.0496,-0.0085 0.0688,-0.0254 0.0192,-0.01693 0.033,-0.04357 0.0413,-0.07992"
             id="path4448"
             inkscape:connector-curvature="0" />
          <path
             d="m 799.03,34.466 v -0.49647 h 0.36812 v 0.08399 h -0.26787 v 0.11006 h 0.24925 v 0.08365 h -0.24925 v 0.13512 h 0.27736 V 34.466 H 799.03"
             id="path4450"
             inkscape:connector-curvature="0" />
          <path
             d="m 799.5,34.466 v -0.49647 h 0.0975 l 0.2032,0.33154 v -0.33154 h 0.0931 V 34.466 h -0.10058 l -0.20015,-0.32376 V 34.466 h -0.0931"
             id="path4452"
             inkscape:connector-curvature="0" />
          <path
             d="m 800,34.466 v -0.49647 h 0.36811 v 0.08399 h -0.26787 v 0.11006 h 0.24925 v 0.08365 h -0.24925 v 0.13512 h 0.27736 V 34.466 H 800"
             id="path4454"
             inkscape:connector-curvature="0" />
        </g>
        <g
           transform="rotate(10.612)"
           style="fill:#ffffff"
           id="text4122">
          <path
             d="m 798.07,37.669 h 0.18322 c 0.0413,0 0.0728,0.0032 0.0945,0.0095 0.0291,0.0086 0.0541,0.02382 0.0748,0.04572 0.0208,0.0219 0.0366,0.04877 0.0474,0.0806 0.0108,0.03161 0.0163,0.07067 0.0163,0.11718 0,0.04086 -0.005,0.07608 -0.0152,0.10566 -0.0124,0.03612 -0.0301,0.06536 -0.0532,0.08771 -0.0174,0.01693 -0.0409,0.03014 -0.0704,0.03962 -0.0221,0.007 -0.0517,0.0105 -0.0887,0.0105 h -0.18864 v -0.49647 m 0.10025,0.08399 v 0.32884 h 0.0748 c 0.028,0 0.0482,-0.0016 0.0606,-0.0047 0.0163,-0.0041 0.0297,-0.01095 0.0403,-0.02066 0.0108,-0.0097 0.0196,-0.02562 0.0264,-0.04775 0.007,-0.02235 0.0102,-0.05272 0.0102,-0.0911 0,-0.03838 -0.003,-0.06784 -0.0102,-0.08839 -0.007,-0.02054 -0.0163,-0.03657 -0.0284,-0.04809 -0.0122,-0.01151 -0.0277,-0.0193 -0.0464,-0.02337 -0.014,-0.0032 -0.0414,-0.0047 -0.0823,-0.0047 h -0.045"
             id="path4457"
             inkscape:connector-curvature="0" />
          <path
             d="m 799.02,38.165 h -0.10905 l -0.0434,-0.11277 h -0.19845 l -0.041,0.11277 h -0.10634 l 0.19338,-0.49647 h 0.106 l 0.19879,0.49647 m -0.18457,-0.19642 -0.0684,-0.18423 -0.067,0.18423 h 0.13546"
             id="path4459"
             inkscape:connector-curvature="0" />
          <path
             d="m 799.13,38.165 v -0.41248 h -0.14732 v -0.08399 h 0.39454 v 0.08399 h -0.14698 V 38.165 H 799.13"
             id="path4461"
             inkscape:connector-curvature="0" />
          <path
             d="m 799.45,38.165 v -0.49647 h 0.36812 v 0.08399 h -0.26787 v 0.11006 h 0.24925 v 0.08365 h -0.24925 v 0.13512 h 0.27736 V 38.165 H 799.45"
             id="path4463"
             inkscape:connector-curvature="0" />
        </g>
      </g>
      <text
         inkscape:export-ydpi="32.119999"
         inkscape:export-xdpi="32.119999"
         transform="matrix(1.2139225,0.20945561,-0.13802861,0.79995975,0,0)"
         id="text936"
         y="258.35504"
         x="69.992691"
         style="font-style:normal;font-weight:normal;font-size:12.67564869px;line-height:14.08405399px;font-family:sans-serif;letter-spacing:0px;word-spacing:0px;fill:#000000;fill-opacity:1;stroke:none;stroke-width:0.26458332px;stroke-linecap:butt;stroke-linejoin:miter;stroke-opacity:1"
         xml:space="preserve"><tspan
           style="fill:#ffffff;stroke-width:0.26458332px"
           y="258.35504"
           x="69.992691"
           id="tspan934"
           sodipodi:role="line">GPS</tspan></text>
    </g>
    <text
       xml:space="preserve"
       style="font-style:normal;font-weight:normal;font-size:23.79150963px;line-height:26.435009px;font-family:sans-serif;letter-spacing:0px;word-spacing:0px;fill:#000000;fill-opacity:1;stroke:none;stroke-width:0.26458332px;stroke-linecap:butt;stroke-linejoin:miter;stroke-opacity:1"
       x="81.807495"
       y="251.99411"
       id="text6621"
       transform="scale(1.1636524,0.85936316)"
       inkscape:export-xdpi="39.990002"
       inkscape:export-ydpi="39.990002"><tspan
         sodipodi:role="line"
         x="81.807495"
         y="251.99411"
         style="font-style:normal;font-variant:normal;font-weight:normal;font-stretch:normal;font-family:'Terminator Two';-inkscape-font-specification:'Terminator Two';stroke-width:0.26458332px"
         id="tspan6623">ZGCam</tspan></text>
    <text
       xml:space="preserve"
       style="font-style:normal;font-weight:normal;font-size:5.953125px;line-height:6.61458302px;font-family:sans-serif;letter-spacing:0px;word-spacing:0px;fill:#000000;fill-opacity:1;stroke:none;stroke-width:0.26458332px;stroke-linecap:butt;stroke-linejoin:miter;stroke-opacity:1"
       x="97.462219"
       y="238.60173"
       id="text6629"
       inkscape:export-xdpi="39.990002"
       inkscape:export-ydpi="39.990002"><tspan
         sodipodi:role="line"
         id="tspan6627"
         x="97.462219"
         y="238.60173"
         style="stroke-width:0.26458332px">Supported Device: </tspan><tspan
         sodipodi:role="line"
         x="97.462219"
         y="245.21631"
         style="stroke-width:0.26458332px"
         id="tspan6631">      Gopro Hero 5 Black</tspan></text>
    <text
       xml:space="preserve"
       style="font-style:normal;font-weight:normal;font-size:5.953125px;line-height:6.61458302px;font-family:sans-serif;letter-spacing:0px;word-spacing:0px;fill:#000000;fill-opacity:1;stroke:none;stroke-width:0.26458332px;stroke-linecap:butt;stroke-linejoin:miter;stroke-opacity:1"
       x="96.881828"
       y="228.24767"
       id="text6635"
       inkscape:export-xdpi="39.990002"
       inkscape:export-ydpi="39.990002"><tspan
         sodipodi:role="line"
         id="tspan6633"
         x="96.881828"
         y="228.24767"
         style="stroke-width:0.26458332px">© 2017 Matthias Zartmann</tspan></text>
  </g>
</svg>
